G04 #@! TF.FileFunction,Copper,L2,Bot,Signal*
%FSLAX46Y46*%
G04 Gerber Fmt 4.6, Leading zero omitted, Abs format (unit mm)*
G04 Created by KiCad (PCBNEW 4.0.7) date 05/05/18 10:53:01*
%MOMM*%
%LPD*%
G01*
G04 APERTURE LIST*
%ADD10C,0.100000*%
%ADD11C,1.524000*%
%ADD12R,1.800000X1.800000*%
%ADD13O,1.800000X1.800000*%
%ADD14R,3.000000X3.000000*%
%ADD15C,3.000000*%
%ADD16C,1.800000*%
%ADD17C,0.600000*%
%ADD18C,0.600000*%
%ADD19C,0.254000*%
G04 APERTURE END LIST*
D10*
D11*
X140335000Y-94615000D03*
X156845000Y-94615000D03*
X140335000Y-102235000D03*
X160655000Y-102235000D03*
D12*
X117475000Y-100965000D03*
D13*
X117475000Y-98425000D03*
X117475000Y-95885000D03*
D11*
X122555000Y-90170000D03*
X120015000Y-90170000D03*
X117475000Y-90170000D03*
X114935000Y-90170000D03*
X112395000Y-90170000D03*
X109855000Y-90170000D03*
X107315000Y-90170000D03*
X122555000Y-86360000D03*
X120015000Y-86360000D03*
X117475000Y-86360000D03*
X114935000Y-86360000D03*
X112395000Y-86360000D03*
X109855000Y-86360000D03*
X107315000Y-86360000D03*
D12*
X117145000Y-80645000D03*
D13*
X117145000Y-78105000D03*
X117145000Y-75565000D03*
D14*
X135255000Y-67945000D03*
D15*
X140335000Y-67945000D03*
D14*
X114935000Y-67945000D03*
D15*
X120015000Y-67945000D03*
D14*
X165735000Y-67945000D03*
D15*
X170815000Y-67945000D03*
D14*
X125095000Y-67945000D03*
D15*
X130175000Y-67945000D03*
D14*
X104775000Y-67945000D03*
D15*
X109855000Y-67945000D03*
D14*
X145415000Y-67945000D03*
D15*
X150495000Y-67945000D03*
D14*
X155575000Y-67945000D03*
D15*
X160655000Y-67945000D03*
D16*
X115570000Y-92710000D03*
X152400000Y-82550000D03*
X138430000Y-86360000D03*
X120650000Y-78105000D03*
X125730000Y-78105000D03*
D17*
X117475000Y-100965000D03*
X170815000Y-67945000D03*
X155575000Y-67945000D03*
X145415000Y-67945000D03*
X140335000Y-67945000D03*
X120015000Y-67945000D03*
D16*
X114300000Y-83185000D03*
X147955000Y-70485000D03*
X147955000Y-76200000D03*
X152400000Y-70485000D03*
X151130000Y-76200000D03*
X127000000Y-89022011D03*
X125730000Y-93345000D03*
X138430000Y-76200000D03*
X138430000Y-70485000D03*
D17*
X122555000Y-90170000D03*
D16*
X125730000Y-74295000D03*
D18*
X114300000Y-83185000D02*
X115199999Y-82285001D01*
X115199999Y-82285001D02*
X115199999Y-77510001D01*
X115199999Y-77510001D02*
X116245001Y-76464999D01*
X116245001Y-76464999D02*
X117145000Y-75565000D01*
X147955000Y-76200000D02*
X147955000Y-70485000D01*
X151130000Y-76200000D02*
X151130000Y-71755000D01*
X151130000Y-71755000D02*
X152400000Y-70485000D01*
X127000000Y-90294803D02*
X127000000Y-89022011D01*
X125730000Y-93345000D02*
X127000000Y-92075000D01*
X127000000Y-92075000D02*
X127000000Y-90294803D01*
X138430000Y-70485000D02*
X138430000Y-76200000D01*
X125730000Y-74295000D02*
X124830001Y-73395001D01*
X124830001Y-73395001D02*
X122485001Y-73395001D01*
X122485001Y-73395001D02*
X117035000Y-67945000D01*
X117035000Y-67945000D02*
X114935000Y-67945000D01*
D19*
G36*
X173280000Y-104065000D02*
X102310000Y-104065000D01*
X102310000Y-102511661D01*
X138937758Y-102511661D01*
X139149990Y-103025303D01*
X139542630Y-103418629D01*
X140055900Y-103631757D01*
X140611661Y-103632242D01*
X141125303Y-103420010D01*
X141518629Y-103027370D01*
X141731757Y-102514100D01*
X141731759Y-102511661D01*
X159257758Y-102511661D01*
X159469990Y-103025303D01*
X159862630Y-103418629D01*
X160375900Y-103631757D01*
X160931661Y-103632242D01*
X161445303Y-103420010D01*
X161838629Y-103027370D01*
X162051757Y-102514100D01*
X162052242Y-101958339D01*
X161840010Y-101444697D01*
X161447370Y-101051371D01*
X160934100Y-100838243D01*
X160378339Y-100837758D01*
X159864697Y-101049990D01*
X159471371Y-101442630D01*
X159258243Y-101955900D01*
X159257758Y-102511661D01*
X141731759Y-102511661D01*
X141732242Y-101958339D01*
X141520010Y-101444697D01*
X141127370Y-101051371D01*
X140614100Y-100838243D01*
X140058339Y-100837758D01*
X139544697Y-101049990D01*
X139151371Y-101442630D01*
X138938243Y-101955900D01*
X138937758Y-102511661D01*
X102310000Y-102511661D01*
X102310000Y-101250750D01*
X115940000Y-101250750D01*
X115940000Y-101991309D01*
X116036673Y-102224698D01*
X116215301Y-102403327D01*
X116448690Y-102500000D01*
X117189250Y-102500000D01*
X117348000Y-102341250D01*
X117348000Y-101092000D01*
X117602000Y-101092000D01*
X117602000Y-102341250D01*
X117760750Y-102500000D01*
X118501310Y-102500000D01*
X118734699Y-102403327D01*
X118913327Y-102224698D01*
X119010000Y-101991309D01*
X119010000Y-101250750D01*
X118851250Y-101092000D01*
X117602000Y-101092000D01*
X117348000Y-101092000D01*
X116098750Y-101092000D01*
X115940000Y-101250750D01*
X102310000Y-101250750D01*
X102310000Y-98381214D01*
X104140000Y-98381214D01*
X104140000Y-98468786D01*
X104310129Y-99324083D01*
X104794616Y-100049170D01*
X105519703Y-100533657D01*
X106375000Y-100703786D01*
X107230297Y-100533657D01*
X107955384Y-100049170D01*
X108439871Y-99324083D01*
X108610000Y-98468786D01*
X108610000Y-98381214D01*
X108439871Y-97525917D01*
X107955384Y-96800830D01*
X107230297Y-96316343D01*
X106375000Y-96146214D01*
X105519703Y-96316343D01*
X104794616Y-96800830D01*
X104310129Y-97525917D01*
X104140000Y-98381214D01*
X102310000Y-98381214D01*
X102310000Y-95854928D01*
X115940000Y-95854928D01*
X115940000Y-95915072D01*
X116056845Y-96502491D01*
X116389591Y-97000481D01*
X116620845Y-97155000D01*
X116389591Y-97309519D01*
X116056845Y-97807509D01*
X115940000Y-98394928D01*
X115940000Y-98455072D01*
X116056845Y-99042491D01*
X116344583Y-99473122D01*
X116215301Y-99526673D01*
X116036673Y-99705302D01*
X115940000Y-99938691D01*
X115940000Y-100679250D01*
X116098750Y-100838000D01*
X117348000Y-100838000D01*
X117348000Y-100818000D01*
X117602000Y-100818000D01*
X117602000Y-100838000D01*
X118851250Y-100838000D01*
X119010000Y-100679250D01*
X119010000Y-99938691D01*
X118913327Y-99705302D01*
X118734699Y-99526673D01*
X118605417Y-99473122D01*
X118893155Y-99042491D01*
X119010000Y-98455072D01*
X119010000Y-98394928D01*
X118893155Y-97807509D01*
X118560409Y-97309519D01*
X118329155Y-97155000D01*
X118560409Y-97000481D01*
X118893155Y-96502491D01*
X119010000Y-95915072D01*
X119010000Y-95854928D01*
X118893155Y-95267509D01*
X118642022Y-94891661D01*
X138937758Y-94891661D01*
X139149990Y-95405303D01*
X139542630Y-95798629D01*
X140055900Y-96011757D01*
X140611661Y-96012242D01*
X141125303Y-95800010D01*
X141518629Y-95407370D01*
X141731757Y-94894100D01*
X141731759Y-94891661D01*
X155447758Y-94891661D01*
X155659990Y-95405303D01*
X156052630Y-95798629D01*
X156565900Y-96011757D01*
X157121661Y-96012242D01*
X157635303Y-95800010D01*
X158028629Y-95407370D01*
X158241757Y-94894100D01*
X158242242Y-94338339D01*
X158030010Y-93824697D01*
X157637370Y-93431371D01*
X157124100Y-93218243D01*
X156568339Y-93217758D01*
X156054697Y-93429990D01*
X155661371Y-93822630D01*
X155448243Y-94335900D01*
X155447758Y-94891661D01*
X141731759Y-94891661D01*
X141732242Y-94338339D01*
X141520010Y-93824697D01*
X141127370Y-93431371D01*
X140614100Y-93218243D01*
X140058339Y-93217758D01*
X139544697Y-93429990D01*
X139151371Y-93822630D01*
X138938243Y-94335900D01*
X138937758Y-94891661D01*
X118642022Y-94891661D01*
X118560409Y-94769519D01*
X118062419Y-94436773D01*
X117475000Y-94319928D01*
X116887581Y-94436773D01*
X116389591Y-94769519D01*
X116056845Y-95267509D01*
X115940000Y-95854928D01*
X102310000Y-95854928D01*
X102310000Y-93648991D01*
X124194735Y-93648991D01*
X124427932Y-94213371D01*
X124859357Y-94645551D01*
X125423330Y-94879733D01*
X126033991Y-94880265D01*
X126598371Y-94647068D01*
X127030551Y-94215643D01*
X127264733Y-93651670D01*
X127265186Y-93132104D01*
X127661145Y-92736145D01*
X127863827Y-92432809D01*
X127935000Y-92075000D01*
X127935000Y-90257566D01*
X128300551Y-89892654D01*
X128534733Y-89328681D01*
X128535265Y-88718020D01*
X128302068Y-88153640D01*
X127870643Y-87721460D01*
X127306670Y-87487278D01*
X126696009Y-87486746D01*
X126131629Y-87719943D01*
X125699449Y-88151368D01*
X125465267Y-88715341D01*
X125464735Y-89326002D01*
X125697932Y-89890382D01*
X126065000Y-90258092D01*
X126065000Y-91687710D01*
X125942525Y-91810185D01*
X125426009Y-91809735D01*
X124861629Y-92042932D01*
X124429449Y-92474357D01*
X124195267Y-93038330D01*
X124194735Y-93648991D01*
X102310000Y-93648991D01*
X102310000Y-91150213D01*
X106514392Y-91150213D01*
X106583857Y-91392397D01*
X107107302Y-91579144D01*
X107662368Y-91551362D01*
X108046143Y-91392397D01*
X108115608Y-91150213D01*
X107315000Y-90349605D01*
X106514392Y-91150213D01*
X102310000Y-91150213D01*
X102310000Y-89962302D01*
X105905856Y-89962302D01*
X105933638Y-90517368D01*
X106092603Y-90901143D01*
X106334787Y-90970608D01*
X107135395Y-90170000D01*
X107494605Y-90170000D01*
X108295213Y-90970608D01*
X108537397Y-90901143D01*
X108587509Y-90760682D01*
X108669990Y-90960303D01*
X109062630Y-91353629D01*
X109575900Y-91566757D01*
X110131661Y-91567242D01*
X110645303Y-91355010D01*
X111038629Y-90962370D01*
X111124949Y-90754488D01*
X111209990Y-90960303D01*
X111602630Y-91353629D01*
X112115900Y-91566757D01*
X112671661Y-91567242D01*
X113185303Y-91355010D01*
X113578629Y-90962370D01*
X113664949Y-90754488D01*
X113749990Y-90960303D01*
X114142630Y-91353629D01*
X114655900Y-91566757D01*
X115211661Y-91567242D01*
X115725303Y-91355010D01*
X116118629Y-90962370D01*
X116204949Y-90754488D01*
X116289990Y-90960303D01*
X116682630Y-91353629D01*
X117195900Y-91566757D01*
X117751661Y-91567242D01*
X118265303Y-91355010D01*
X118658629Y-90962370D01*
X118744949Y-90754488D01*
X118829990Y-90960303D01*
X119222630Y-91353629D01*
X119735900Y-91566757D01*
X120291661Y-91567242D01*
X120805303Y-91355010D01*
X121198629Y-90962370D01*
X121284949Y-90754488D01*
X121369990Y-90960303D01*
X121762630Y-91353629D01*
X122275900Y-91566757D01*
X122831661Y-91567242D01*
X123345303Y-91355010D01*
X123738629Y-90962370D01*
X123951757Y-90449100D01*
X123952242Y-89893339D01*
X123740010Y-89379697D01*
X123347370Y-88986371D01*
X122834100Y-88773243D01*
X122278339Y-88772758D01*
X121764697Y-88984990D01*
X121371371Y-89377630D01*
X121285051Y-89585512D01*
X121200010Y-89379697D01*
X120807370Y-88986371D01*
X120294100Y-88773243D01*
X119738339Y-88772758D01*
X119224697Y-88984990D01*
X118831371Y-89377630D01*
X118745051Y-89585512D01*
X118660010Y-89379697D01*
X118267370Y-88986371D01*
X117754100Y-88773243D01*
X117198339Y-88772758D01*
X116684697Y-88984990D01*
X116291371Y-89377630D01*
X116205051Y-89585512D01*
X116120010Y-89379697D01*
X115727370Y-88986371D01*
X115214100Y-88773243D01*
X114658339Y-88772758D01*
X114144697Y-88984990D01*
X113751371Y-89377630D01*
X113665051Y-89585512D01*
X113580010Y-89379697D01*
X113187370Y-88986371D01*
X112674100Y-88773243D01*
X112118339Y-88772758D01*
X111604697Y-88984990D01*
X111211371Y-89377630D01*
X111125051Y-89585512D01*
X111040010Y-89379697D01*
X110647370Y-88986371D01*
X110134100Y-88773243D01*
X109578339Y-88772758D01*
X109064697Y-88984990D01*
X108671371Y-89377630D01*
X108591605Y-89569727D01*
X108537397Y-89438857D01*
X108295213Y-89369392D01*
X107494605Y-90170000D01*
X107135395Y-90170000D01*
X106334787Y-89369392D01*
X106092603Y-89438857D01*
X105905856Y-89962302D01*
X102310000Y-89962302D01*
X102310000Y-89189787D01*
X106514392Y-89189787D01*
X107315000Y-89990395D01*
X108115608Y-89189787D01*
X108046143Y-88947603D01*
X107522698Y-88760856D01*
X106967632Y-88788638D01*
X106583857Y-88947603D01*
X106514392Y-89189787D01*
X102310000Y-89189787D01*
X102310000Y-86636661D01*
X105917758Y-86636661D01*
X106129990Y-87150303D01*
X106522630Y-87543629D01*
X107035900Y-87756757D01*
X107591661Y-87757242D01*
X108105303Y-87545010D01*
X108498629Y-87152370D01*
X108584949Y-86944488D01*
X108669990Y-87150303D01*
X109062630Y-87543629D01*
X109575900Y-87756757D01*
X110131661Y-87757242D01*
X110645303Y-87545010D01*
X111038629Y-87152370D01*
X111124949Y-86944488D01*
X111209990Y-87150303D01*
X111602630Y-87543629D01*
X112115900Y-87756757D01*
X112671661Y-87757242D01*
X113185303Y-87545010D01*
X113578629Y-87152370D01*
X113664949Y-86944488D01*
X113749990Y-87150303D01*
X114142630Y-87543629D01*
X114655900Y-87756757D01*
X115211661Y-87757242D01*
X115725303Y-87545010D01*
X116118629Y-87152370D01*
X116204949Y-86944488D01*
X116289990Y-87150303D01*
X116682630Y-87543629D01*
X117195900Y-87756757D01*
X117751661Y-87757242D01*
X118265303Y-87545010D01*
X118658629Y-87152370D01*
X118744949Y-86944488D01*
X118829990Y-87150303D01*
X119222630Y-87543629D01*
X119735900Y-87756757D01*
X120291661Y-87757242D01*
X120805303Y-87545010D01*
X121198629Y-87152370D01*
X121284949Y-86944488D01*
X121369990Y-87150303D01*
X121762630Y-87543629D01*
X122275900Y-87756757D01*
X122831661Y-87757242D01*
X123345303Y-87545010D01*
X123738629Y-87152370D01*
X123951757Y-86639100D01*
X123952242Y-86083339D01*
X123740010Y-85569697D01*
X123347370Y-85176371D01*
X122834100Y-84963243D01*
X122278339Y-84962758D01*
X121764697Y-85174990D01*
X121371371Y-85567630D01*
X121285051Y-85775512D01*
X121200010Y-85569697D01*
X120807370Y-85176371D01*
X120294100Y-84963243D01*
X119738339Y-84962758D01*
X119224697Y-85174990D01*
X118831371Y-85567630D01*
X118745051Y-85775512D01*
X118660010Y-85569697D01*
X118267370Y-85176371D01*
X117754100Y-84963243D01*
X117198339Y-84962758D01*
X116684697Y-85174990D01*
X116291371Y-85567630D01*
X116205051Y-85775512D01*
X116120010Y-85569697D01*
X115727370Y-85176371D01*
X115214100Y-84963243D01*
X114658339Y-84962758D01*
X114144697Y-85174990D01*
X113751371Y-85567630D01*
X113665051Y-85775512D01*
X113580010Y-85569697D01*
X113187370Y-85176371D01*
X112674100Y-84963243D01*
X112118339Y-84962758D01*
X111604697Y-85174990D01*
X111211371Y-85567630D01*
X111125051Y-85775512D01*
X111040010Y-85569697D01*
X110647370Y-85176371D01*
X110134100Y-84963243D01*
X109578339Y-84962758D01*
X109064697Y-85174990D01*
X108671371Y-85567630D01*
X108585051Y-85775512D01*
X108500010Y-85569697D01*
X108107370Y-85176371D01*
X107594100Y-84963243D01*
X107038339Y-84962758D01*
X106524697Y-85174990D01*
X106131371Y-85567630D01*
X105918243Y-86080900D01*
X105917758Y-86636661D01*
X102310000Y-86636661D01*
X102310000Y-83488991D01*
X112764735Y-83488991D01*
X112997932Y-84053371D01*
X113429357Y-84485551D01*
X113993330Y-84719733D01*
X114603991Y-84720265D01*
X115168371Y-84487068D01*
X115600551Y-84055643D01*
X115834733Y-83491670D01*
X115835186Y-82972104D01*
X115861144Y-82946146D01*
X116063826Y-82642810D01*
X116134999Y-82285001D01*
X116134999Y-82170164D01*
X116245000Y-82192440D01*
X118045000Y-82192440D01*
X118280317Y-82148162D01*
X118496441Y-82009090D01*
X118641431Y-81796890D01*
X118692440Y-81545000D01*
X118692440Y-79745000D01*
X118648162Y-79509683D01*
X118509090Y-79293559D01*
X118296890Y-79148569D01*
X118245854Y-79138234D01*
X118382966Y-79012576D01*
X118636046Y-78469742D01*
X118515997Y-78232000D01*
X117272000Y-78232000D01*
X117272000Y-78252000D01*
X117018000Y-78252000D01*
X117018000Y-78232000D01*
X116998000Y-78232000D01*
X116998000Y-77978000D01*
X117018000Y-77978000D01*
X117018000Y-77958000D01*
X117272000Y-77958000D01*
X117272000Y-77978000D01*
X118515997Y-77978000D01*
X118636046Y-77740258D01*
X118382966Y-77197424D01*
X117992418Y-76839501D01*
X118230409Y-76680481D01*
X118563155Y-76182491D01*
X118680000Y-75595072D01*
X118680000Y-75534928D01*
X118563155Y-74947509D01*
X118230409Y-74449519D01*
X117732419Y-74116773D01*
X117145000Y-73999928D01*
X116557581Y-74116773D01*
X116059591Y-74449519D01*
X115726845Y-74947509D01*
X115610000Y-75534928D01*
X115610000Y-75595072D01*
X115640302Y-75747408D01*
X114538854Y-76848856D01*
X114336172Y-77152192D01*
X114264999Y-77510001D01*
X114264999Y-81649969D01*
X113996009Y-81649735D01*
X113431629Y-81882932D01*
X112999449Y-82314357D01*
X112765267Y-82878330D01*
X112764735Y-83488991D01*
X102310000Y-83488991D01*
X102310000Y-78061214D01*
X103810000Y-78061214D01*
X103810000Y-78148786D01*
X103980129Y-79004083D01*
X104464616Y-79729170D01*
X105189703Y-80213657D01*
X106045000Y-80383786D01*
X106900297Y-80213657D01*
X107625384Y-79729170D01*
X108109871Y-79004083D01*
X108280000Y-78148786D01*
X108280000Y-78061214D01*
X108109871Y-77205917D01*
X107625384Y-76480830D01*
X106900297Y-75996343D01*
X106045000Y-75826214D01*
X105189703Y-75996343D01*
X104464616Y-76480830D01*
X103980129Y-77205917D01*
X103810000Y-78061214D01*
X102310000Y-78061214D01*
X102310000Y-66445000D01*
X102627560Y-66445000D01*
X102627560Y-69445000D01*
X102671838Y-69680317D01*
X102810910Y-69896441D01*
X103023110Y-70041431D01*
X103275000Y-70092440D01*
X106275000Y-70092440D01*
X106510317Y-70048162D01*
X106726441Y-69909090D01*
X106871431Y-69696890D01*
X106922440Y-69445000D01*
X106922440Y-68367815D01*
X107719630Y-68367815D01*
X108043980Y-69152800D01*
X108644041Y-69753909D01*
X109428459Y-70079628D01*
X110277815Y-70080370D01*
X111062800Y-69756020D01*
X111663909Y-69155959D01*
X111989628Y-68371541D01*
X111990370Y-67522185D01*
X111666020Y-66737200D01*
X111374330Y-66445000D01*
X112787560Y-66445000D01*
X112787560Y-69445000D01*
X112831838Y-69680317D01*
X112970910Y-69896441D01*
X113183110Y-70041431D01*
X113435000Y-70092440D01*
X116435000Y-70092440D01*
X116670317Y-70048162D01*
X116886441Y-69909090D01*
X117031431Y-69696890D01*
X117082440Y-69445000D01*
X117082440Y-69314730D01*
X121823856Y-74056146D01*
X122127192Y-74258828D01*
X122485001Y-74330001D01*
X124194969Y-74330001D01*
X124194735Y-74598991D01*
X124427932Y-75163371D01*
X124859357Y-75595551D01*
X125423330Y-75829733D01*
X126033991Y-75830265D01*
X126598371Y-75597068D01*
X127030551Y-75165643D01*
X127264733Y-74601670D01*
X127265265Y-73991009D01*
X127032068Y-73426629D01*
X126600643Y-72994449D01*
X126036670Y-72760267D01*
X125517104Y-72759814D01*
X125491146Y-72733856D01*
X125187810Y-72531174D01*
X124830001Y-72460001D01*
X122872291Y-72460001D01*
X120482791Y-70070501D01*
X121189582Y-69777739D01*
X121349365Y-69458970D01*
X120015000Y-68124605D01*
X120000858Y-68138748D01*
X119821253Y-67959143D01*
X119835395Y-67945000D01*
X120194605Y-67945000D01*
X121528970Y-69279365D01*
X121847739Y-69119582D01*
X122157723Y-68328813D01*
X122141497Y-67479613D01*
X121847739Y-66770418D01*
X121528970Y-66610635D01*
X120194605Y-67945000D01*
X119835395Y-67945000D01*
X118501030Y-66610635D01*
X118182261Y-66770418D01*
X117900776Y-67488486D01*
X117696145Y-67283855D01*
X117392809Y-67081173D01*
X117082440Y-67019436D01*
X117082440Y-66445000D01*
X117079812Y-66431030D01*
X118680635Y-66431030D01*
X120015000Y-67765395D01*
X121335395Y-66445000D01*
X122947560Y-66445000D01*
X122947560Y-69445000D01*
X122991838Y-69680317D01*
X123130910Y-69896441D01*
X123343110Y-70041431D01*
X123595000Y-70092440D01*
X126595000Y-70092440D01*
X126830317Y-70048162D01*
X127046441Y-69909090D01*
X127191431Y-69696890D01*
X127242440Y-69445000D01*
X127242440Y-68367815D01*
X128039630Y-68367815D01*
X128363980Y-69152800D01*
X128964041Y-69753909D01*
X129748459Y-70079628D01*
X130597815Y-70080370D01*
X131382800Y-69756020D01*
X131983909Y-69155959D01*
X132309628Y-68371541D01*
X132310370Y-67522185D01*
X131986020Y-66737200D01*
X131694330Y-66445000D01*
X133107560Y-66445000D01*
X133107560Y-69445000D01*
X133151838Y-69680317D01*
X133290910Y-69896441D01*
X133503110Y-70041431D01*
X133755000Y-70092440D01*
X136755000Y-70092440D01*
X136945843Y-70056530D01*
X136895267Y-70178330D01*
X136894735Y-70788991D01*
X137127932Y-71353371D01*
X137495000Y-71721081D01*
X137495000Y-74964445D01*
X137129449Y-75329357D01*
X136895267Y-75893330D01*
X136894735Y-76503991D01*
X137127932Y-77068371D01*
X137559357Y-77500551D01*
X138123330Y-77734733D01*
X138733991Y-77735265D01*
X139298371Y-77502068D01*
X139730551Y-77070643D01*
X139964733Y-76506670D01*
X139965265Y-75896009D01*
X139732068Y-75331629D01*
X139365000Y-74963919D01*
X139365000Y-71720555D01*
X139730551Y-71355643D01*
X139964733Y-70791670D01*
X139965265Y-70181009D01*
X139921991Y-70076278D01*
X139951187Y-70087723D01*
X140800387Y-70071497D01*
X141509582Y-69777739D01*
X141669365Y-69458970D01*
X140335000Y-68124605D01*
X140320858Y-68138748D01*
X140141253Y-67959143D01*
X140155395Y-67945000D01*
X140514605Y-67945000D01*
X141848970Y-69279365D01*
X142167739Y-69119582D01*
X142477723Y-68328813D01*
X142475850Y-68230750D01*
X143280000Y-68230750D01*
X143280000Y-69571310D01*
X143376673Y-69804699D01*
X143555302Y-69983327D01*
X143788691Y-70080000D01*
X145129250Y-70080000D01*
X145288000Y-69921250D01*
X145288000Y-68072000D01*
X145542000Y-68072000D01*
X145542000Y-69921250D01*
X145700750Y-70080000D01*
X146461097Y-70080000D01*
X146420267Y-70178330D01*
X146419735Y-70788991D01*
X146652932Y-71353371D01*
X147020000Y-71721081D01*
X147020000Y-74964445D01*
X146654449Y-75329357D01*
X146420267Y-75893330D01*
X146419735Y-76503991D01*
X146652932Y-77068371D01*
X147084357Y-77500551D01*
X147648330Y-77734733D01*
X148258991Y-77735265D01*
X148823371Y-77502068D01*
X149255551Y-77070643D01*
X149489733Y-76506670D01*
X149490265Y-75896009D01*
X149257068Y-75331629D01*
X148890000Y-74963919D01*
X148890000Y-71720555D01*
X149255551Y-71355643D01*
X149489733Y-70791670D01*
X149490265Y-70181009D01*
X149319952Y-69768821D01*
X150068459Y-70079628D01*
X150905948Y-70080360D01*
X150865267Y-70178330D01*
X150864814Y-70697896D01*
X150468855Y-71093855D01*
X150266173Y-71397191D01*
X150195000Y-71755000D01*
X150195000Y-74964445D01*
X149829449Y-75329357D01*
X149595267Y-75893330D01*
X149594735Y-76503991D01*
X149827932Y-77068371D01*
X150259357Y-77500551D01*
X150823330Y-77734733D01*
X151433991Y-77735265D01*
X151998371Y-77502068D01*
X152430551Y-77070643D01*
X152664733Y-76506670D01*
X152665265Y-75896009D01*
X152432068Y-75331629D01*
X152065000Y-74963919D01*
X152065000Y-72142290D01*
X152187475Y-72019815D01*
X152703991Y-72020265D01*
X153268371Y-71787068D01*
X153700551Y-71355643D01*
X153934733Y-70791670D01*
X153935265Y-70181009D01*
X153882139Y-70052433D01*
X153948691Y-70080000D01*
X155289250Y-70080000D01*
X155448000Y-69921250D01*
X155448000Y-68072000D01*
X155702000Y-68072000D01*
X155702000Y-69921250D01*
X155860750Y-70080000D01*
X157201309Y-70080000D01*
X157434698Y-69983327D01*
X157613327Y-69804699D01*
X157710000Y-69571310D01*
X157710000Y-68367815D01*
X158519630Y-68367815D01*
X158843980Y-69152800D01*
X159444041Y-69753909D01*
X160228459Y-70079628D01*
X161077815Y-70080370D01*
X161862800Y-69756020D01*
X162463909Y-69155959D01*
X162789628Y-68371541D01*
X162790370Y-67522185D01*
X162466020Y-66737200D01*
X162174330Y-66445000D01*
X163587560Y-66445000D01*
X163587560Y-69445000D01*
X163631838Y-69680317D01*
X163770910Y-69896441D01*
X163983110Y-70041431D01*
X164235000Y-70092440D01*
X167235000Y-70092440D01*
X167470317Y-70048162D01*
X167686441Y-69909090D01*
X167831431Y-69696890D01*
X167879611Y-69458970D01*
X169480635Y-69458970D01*
X169640418Y-69777739D01*
X170431187Y-70087723D01*
X171280387Y-70071497D01*
X171989582Y-69777739D01*
X172149365Y-69458970D01*
X170815000Y-68124605D01*
X169480635Y-69458970D01*
X167879611Y-69458970D01*
X167882440Y-69445000D01*
X167882440Y-67561187D01*
X168672277Y-67561187D01*
X168688503Y-68410387D01*
X168982261Y-69119582D01*
X169301030Y-69279365D01*
X170635395Y-67945000D01*
X170994605Y-67945000D01*
X172328970Y-69279365D01*
X172647739Y-69119582D01*
X172957723Y-68328813D01*
X172941497Y-67479613D01*
X172647739Y-66770418D01*
X172328970Y-66610635D01*
X170994605Y-67945000D01*
X170635395Y-67945000D01*
X169301030Y-66610635D01*
X168982261Y-66770418D01*
X168672277Y-67561187D01*
X167882440Y-67561187D01*
X167882440Y-66445000D01*
X167879812Y-66431030D01*
X169480635Y-66431030D01*
X170815000Y-67765395D01*
X172149365Y-66431030D01*
X171989582Y-66112261D01*
X171198813Y-65802277D01*
X170349613Y-65818503D01*
X169640418Y-66112261D01*
X169480635Y-66431030D01*
X167879812Y-66431030D01*
X167838162Y-66209683D01*
X167699090Y-65993559D01*
X167486890Y-65848569D01*
X167235000Y-65797560D01*
X164235000Y-65797560D01*
X163999683Y-65841838D01*
X163783559Y-65980910D01*
X163638569Y-66193110D01*
X163587560Y-66445000D01*
X162174330Y-66445000D01*
X161865959Y-66136091D01*
X161081541Y-65810372D01*
X160232185Y-65809630D01*
X159447200Y-66133980D01*
X158846091Y-66734041D01*
X158520372Y-67518459D01*
X158519630Y-68367815D01*
X157710000Y-68367815D01*
X157710000Y-68230750D01*
X157551250Y-68072000D01*
X155702000Y-68072000D01*
X155448000Y-68072000D01*
X153598750Y-68072000D01*
X153440000Y-68230750D01*
X153440000Y-69354102D01*
X153270643Y-69184449D01*
X152706670Y-68950267D01*
X152389435Y-68949991D01*
X152629628Y-68371541D01*
X152630370Y-67522185D01*
X152306020Y-66737200D01*
X151888240Y-66318690D01*
X153440000Y-66318690D01*
X153440000Y-67659250D01*
X153598750Y-67818000D01*
X155448000Y-67818000D01*
X155448000Y-65968750D01*
X155702000Y-65968750D01*
X155702000Y-67818000D01*
X157551250Y-67818000D01*
X157710000Y-67659250D01*
X157710000Y-66318690D01*
X157613327Y-66085301D01*
X157434698Y-65906673D01*
X157201309Y-65810000D01*
X155860750Y-65810000D01*
X155702000Y-65968750D01*
X155448000Y-65968750D01*
X155289250Y-65810000D01*
X153948691Y-65810000D01*
X153715302Y-65906673D01*
X153536673Y-66085301D01*
X153440000Y-66318690D01*
X151888240Y-66318690D01*
X151705959Y-66136091D01*
X150921541Y-65810372D01*
X150072185Y-65809630D01*
X149287200Y-66133980D01*
X148686091Y-66734041D01*
X148360372Y-67518459D01*
X148359630Y-68367815D01*
X148670426Y-69119997D01*
X148261670Y-68950267D01*
X147651009Y-68949735D01*
X147550000Y-68991471D01*
X147550000Y-68230750D01*
X147391250Y-68072000D01*
X145542000Y-68072000D01*
X145288000Y-68072000D01*
X143438750Y-68072000D01*
X143280000Y-68230750D01*
X142475850Y-68230750D01*
X142461497Y-67479613D01*
X142167739Y-66770418D01*
X141848970Y-66610635D01*
X140514605Y-67945000D01*
X140155395Y-67945000D01*
X138821030Y-66610635D01*
X138502261Y-66770418D01*
X138192277Y-67561187D01*
X138208503Y-68410387D01*
X138432019Y-68950002D01*
X138126009Y-68949735D01*
X137561629Y-69182932D01*
X137402440Y-69341843D01*
X137402440Y-66445000D01*
X137399812Y-66431030D01*
X139000635Y-66431030D01*
X140335000Y-67765395D01*
X141669365Y-66431030D01*
X141613055Y-66318690D01*
X143280000Y-66318690D01*
X143280000Y-67659250D01*
X143438750Y-67818000D01*
X145288000Y-67818000D01*
X145288000Y-65968750D01*
X145542000Y-65968750D01*
X145542000Y-67818000D01*
X147391250Y-67818000D01*
X147550000Y-67659250D01*
X147550000Y-66318690D01*
X147453327Y-66085301D01*
X147274698Y-65906673D01*
X147041309Y-65810000D01*
X145700750Y-65810000D01*
X145542000Y-65968750D01*
X145288000Y-65968750D01*
X145129250Y-65810000D01*
X143788691Y-65810000D01*
X143555302Y-65906673D01*
X143376673Y-66085301D01*
X143280000Y-66318690D01*
X141613055Y-66318690D01*
X141509582Y-66112261D01*
X140718813Y-65802277D01*
X139869613Y-65818503D01*
X139160418Y-66112261D01*
X139000635Y-66431030D01*
X137399812Y-66431030D01*
X137358162Y-66209683D01*
X137219090Y-65993559D01*
X137006890Y-65848569D01*
X136755000Y-65797560D01*
X133755000Y-65797560D01*
X133519683Y-65841838D01*
X133303559Y-65980910D01*
X133158569Y-66193110D01*
X133107560Y-66445000D01*
X131694330Y-66445000D01*
X131385959Y-66136091D01*
X130601541Y-65810372D01*
X129752185Y-65809630D01*
X128967200Y-66133980D01*
X128366091Y-66734041D01*
X128040372Y-67518459D01*
X128039630Y-68367815D01*
X127242440Y-68367815D01*
X127242440Y-66445000D01*
X127198162Y-66209683D01*
X127059090Y-65993559D01*
X126846890Y-65848569D01*
X126595000Y-65797560D01*
X123595000Y-65797560D01*
X123359683Y-65841838D01*
X123143559Y-65980910D01*
X122998569Y-66193110D01*
X122947560Y-66445000D01*
X121335395Y-66445000D01*
X121349365Y-66431030D01*
X121189582Y-66112261D01*
X120398813Y-65802277D01*
X119549613Y-65818503D01*
X118840418Y-66112261D01*
X118680635Y-66431030D01*
X117079812Y-66431030D01*
X117038162Y-66209683D01*
X116899090Y-65993559D01*
X116686890Y-65848569D01*
X116435000Y-65797560D01*
X113435000Y-65797560D01*
X113199683Y-65841838D01*
X112983559Y-65980910D01*
X112838569Y-66193110D01*
X112787560Y-66445000D01*
X111374330Y-66445000D01*
X111065959Y-66136091D01*
X110281541Y-65810372D01*
X109432185Y-65809630D01*
X108647200Y-66133980D01*
X108046091Y-66734041D01*
X107720372Y-67518459D01*
X107719630Y-68367815D01*
X106922440Y-68367815D01*
X106922440Y-66445000D01*
X106878162Y-66209683D01*
X106739090Y-65993559D01*
X106526890Y-65848569D01*
X106275000Y-65797560D01*
X103275000Y-65797560D01*
X103039683Y-65841838D01*
X102823559Y-65980910D01*
X102678569Y-66193110D01*
X102627560Y-66445000D01*
X102310000Y-66445000D01*
X102310000Y-64210000D01*
X173280000Y-64210000D01*
X173280000Y-104065000D01*
X173280000Y-104065000D01*
G37*
X173280000Y-104065000D02*
X102310000Y-104065000D01*
X102310000Y-102511661D01*
X138937758Y-102511661D01*
X139149990Y-103025303D01*
X139542630Y-103418629D01*
X140055900Y-103631757D01*
X140611661Y-103632242D01*
X141125303Y-103420010D01*
X141518629Y-103027370D01*
X141731757Y-102514100D01*
X141731759Y-102511661D01*
X159257758Y-102511661D01*
X159469990Y-103025303D01*
X159862630Y-103418629D01*
X160375900Y-103631757D01*
X160931661Y-103632242D01*
X161445303Y-103420010D01*
X161838629Y-103027370D01*
X162051757Y-102514100D01*
X162052242Y-101958339D01*
X161840010Y-101444697D01*
X161447370Y-101051371D01*
X160934100Y-100838243D01*
X160378339Y-100837758D01*
X159864697Y-101049990D01*
X159471371Y-101442630D01*
X159258243Y-101955900D01*
X159257758Y-102511661D01*
X141731759Y-102511661D01*
X141732242Y-101958339D01*
X141520010Y-101444697D01*
X141127370Y-101051371D01*
X140614100Y-100838243D01*
X140058339Y-100837758D01*
X139544697Y-101049990D01*
X139151371Y-101442630D01*
X138938243Y-101955900D01*
X138937758Y-102511661D01*
X102310000Y-102511661D01*
X102310000Y-101250750D01*
X115940000Y-101250750D01*
X115940000Y-101991309D01*
X116036673Y-102224698D01*
X116215301Y-102403327D01*
X116448690Y-102500000D01*
X117189250Y-102500000D01*
X117348000Y-102341250D01*
X117348000Y-101092000D01*
X117602000Y-101092000D01*
X117602000Y-102341250D01*
X117760750Y-102500000D01*
X118501310Y-102500000D01*
X118734699Y-102403327D01*
X118913327Y-102224698D01*
X119010000Y-101991309D01*
X119010000Y-101250750D01*
X118851250Y-101092000D01*
X117602000Y-101092000D01*
X117348000Y-101092000D01*
X116098750Y-101092000D01*
X115940000Y-101250750D01*
X102310000Y-101250750D01*
X102310000Y-98381214D01*
X104140000Y-98381214D01*
X104140000Y-98468786D01*
X104310129Y-99324083D01*
X104794616Y-100049170D01*
X105519703Y-100533657D01*
X106375000Y-100703786D01*
X107230297Y-100533657D01*
X107955384Y-100049170D01*
X108439871Y-99324083D01*
X108610000Y-98468786D01*
X108610000Y-98381214D01*
X108439871Y-97525917D01*
X107955384Y-96800830D01*
X107230297Y-96316343D01*
X106375000Y-96146214D01*
X105519703Y-96316343D01*
X104794616Y-96800830D01*
X104310129Y-97525917D01*
X104140000Y-98381214D01*
X102310000Y-98381214D01*
X102310000Y-95854928D01*
X115940000Y-95854928D01*
X115940000Y-95915072D01*
X116056845Y-96502491D01*
X116389591Y-97000481D01*
X116620845Y-97155000D01*
X116389591Y-97309519D01*
X116056845Y-97807509D01*
X115940000Y-98394928D01*
X115940000Y-98455072D01*
X116056845Y-99042491D01*
X116344583Y-99473122D01*
X116215301Y-99526673D01*
X116036673Y-99705302D01*
X115940000Y-99938691D01*
X115940000Y-100679250D01*
X116098750Y-100838000D01*
X117348000Y-100838000D01*
X117348000Y-100818000D01*
X117602000Y-100818000D01*
X117602000Y-100838000D01*
X118851250Y-100838000D01*
X119010000Y-100679250D01*
X119010000Y-99938691D01*
X118913327Y-99705302D01*
X118734699Y-99526673D01*
X118605417Y-99473122D01*
X118893155Y-99042491D01*
X119010000Y-98455072D01*
X119010000Y-98394928D01*
X118893155Y-97807509D01*
X118560409Y-97309519D01*
X118329155Y-97155000D01*
X118560409Y-97000481D01*
X118893155Y-96502491D01*
X119010000Y-95915072D01*
X119010000Y-95854928D01*
X118893155Y-95267509D01*
X118642022Y-94891661D01*
X138937758Y-94891661D01*
X139149990Y-95405303D01*
X139542630Y-95798629D01*
X140055900Y-96011757D01*
X140611661Y-96012242D01*
X141125303Y-95800010D01*
X141518629Y-95407370D01*
X141731757Y-94894100D01*
X141731759Y-94891661D01*
X155447758Y-94891661D01*
X155659990Y-95405303D01*
X156052630Y-95798629D01*
X156565900Y-96011757D01*
X157121661Y-96012242D01*
X157635303Y-95800010D01*
X158028629Y-95407370D01*
X158241757Y-94894100D01*
X158242242Y-94338339D01*
X158030010Y-93824697D01*
X157637370Y-93431371D01*
X157124100Y-93218243D01*
X156568339Y-93217758D01*
X156054697Y-93429990D01*
X155661371Y-93822630D01*
X155448243Y-94335900D01*
X155447758Y-94891661D01*
X141731759Y-94891661D01*
X141732242Y-94338339D01*
X141520010Y-93824697D01*
X141127370Y-93431371D01*
X140614100Y-93218243D01*
X140058339Y-93217758D01*
X139544697Y-93429990D01*
X139151371Y-93822630D01*
X138938243Y-94335900D01*
X138937758Y-94891661D01*
X118642022Y-94891661D01*
X118560409Y-94769519D01*
X118062419Y-94436773D01*
X117475000Y-94319928D01*
X116887581Y-94436773D01*
X116389591Y-94769519D01*
X116056845Y-95267509D01*
X115940000Y-95854928D01*
X102310000Y-95854928D01*
X102310000Y-93648991D01*
X124194735Y-93648991D01*
X124427932Y-94213371D01*
X124859357Y-94645551D01*
X125423330Y-94879733D01*
X126033991Y-94880265D01*
X126598371Y-94647068D01*
X127030551Y-94215643D01*
X127264733Y-93651670D01*
X127265186Y-93132104D01*
X127661145Y-92736145D01*
X127863827Y-92432809D01*
X127935000Y-92075000D01*
X127935000Y-90257566D01*
X128300551Y-89892654D01*
X128534733Y-89328681D01*
X128535265Y-88718020D01*
X128302068Y-88153640D01*
X127870643Y-87721460D01*
X127306670Y-87487278D01*
X126696009Y-87486746D01*
X126131629Y-87719943D01*
X125699449Y-88151368D01*
X125465267Y-88715341D01*
X125464735Y-89326002D01*
X125697932Y-89890382D01*
X126065000Y-90258092D01*
X126065000Y-91687710D01*
X125942525Y-91810185D01*
X125426009Y-91809735D01*
X124861629Y-92042932D01*
X124429449Y-92474357D01*
X124195267Y-93038330D01*
X124194735Y-93648991D01*
X102310000Y-93648991D01*
X102310000Y-91150213D01*
X106514392Y-91150213D01*
X106583857Y-91392397D01*
X107107302Y-91579144D01*
X107662368Y-91551362D01*
X108046143Y-91392397D01*
X108115608Y-91150213D01*
X107315000Y-90349605D01*
X106514392Y-91150213D01*
X102310000Y-91150213D01*
X102310000Y-89962302D01*
X105905856Y-89962302D01*
X105933638Y-90517368D01*
X106092603Y-90901143D01*
X106334787Y-90970608D01*
X107135395Y-90170000D01*
X107494605Y-90170000D01*
X108295213Y-90970608D01*
X108537397Y-90901143D01*
X108587509Y-90760682D01*
X108669990Y-90960303D01*
X109062630Y-91353629D01*
X109575900Y-91566757D01*
X110131661Y-91567242D01*
X110645303Y-91355010D01*
X111038629Y-90962370D01*
X111124949Y-90754488D01*
X111209990Y-90960303D01*
X111602630Y-91353629D01*
X112115900Y-91566757D01*
X112671661Y-91567242D01*
X113185303Y-91355010D01*
X113578629Y-90962370D01*
X113664949Y-90754488D01*
X113749990Y-90960303D01*
X114142630Y-91353629D01*
X114655900Y-91566757D01*
X115211661Y-91567242D01*
X115725303Y-91355010D01*
X116118629Y-90962370D01*
X116204949Y-90754488D01*
X116289990Y-90960303D01*
X116682630Y-91353629D01*
X117195900Y-91566757D01*
X117751661Y-91567242D01*
X118265303Y-91355010D01*
X118658629Y-90962370D01*
X118744949Y-90754488D01*
X118829990Y-90960303D01*
X119222630Y-91353629D01*
X119735900Y-91566757D01*
X120291661Y-91567242D01*
X120805303Y-91355010D01*
X121198629Y-90962370D01*
X121284949Y-90754488D01*
X121369990Y-90960303D01*
X121762630Y-91353629D01*
X122275900Y-91566757D01*
X122831661Y-91567242D01*
X123345303Y-91355010D01*
X123738629Y-90962370D01*
X123951757Y-90449100D01*
X123952242Y-89893339D01*
X123740010Y-89379697D01*
X123347370Y-88986371D01*
X122834100Y-88773243D01*
X122278339Y-88772758D01*
X121764697Y-88984990D01*
X121371371Y-89377630D01*
X121285051Y-89585512D01*
X121200010Y-89379697D01*
X120807370Y-88986371D01*
X120294100Y-88773243D01*
X119738339Y-88772758D01*
X119224697Y-88984990D01*
X118831371Y-89377630D01*
X118745051Y-89585512D01*
X118660010Y-89379697D01*
X118267370Y-88986371D01*
X117754100Y-88773243D01*
X117198339Y-88772758D01*
X116684697Y-88984990D01*
X116291371Y-89377630D01*
X116205051Y-89585512D01*
X116120010Y-89379697D01*
X115727370Y-88986371D01*
X115214100Y-88773243D01*
X114658339Y-88772758D01*
X114144697Y-88984990D01*
X113751371Y-89377630D01*
X113665051Y-89585512D01*
X113580010Y-89379697D01*
X113187370Y-88986371D01*
X112674100Y-88773243D01*
X112118339Y-88772758D01*
X111604697Y-88984990D01*
X111211371Y-89377630D01*
X111125051Y-89585512D01*
X111040010Y-89379697D01*
X110647370Y-88986371D01*
X110134100Y-88773243D01*
X109578339Y-88772758D01*
X109064697Y-88984990D01*
X108671371Y-89377630D01*
X108591605Y-89569727D01*
X108537397Y-89438857D01*
X108295213Y-89369392D01*
X107494605Y-90170000D01*
X107135395Y-90170000D01*
X106334787Y-89369392D01*
X106092603Y-89438857D01*
X105905856Y-89962302D01*
X102310000Y-89962302D01*
X102310000Y-89189787D01*
X106514392Y-89189787D01*
X107315000Y-89990395D01*
X108115608Y-89189787D01*
X108046143Y-88947603D01*
X107522698Y-88760856D01*
X106967632Y-88788638D01*
X106583857Y-88947603D01*
X106514392Y-89189787D01*
X102310000Y-89189787D01*
X102310000Y-86636661D01*
X105917758Y-86636661D01*
X106129990Y-87150303D01*
X106522630Y-87543629D01*
X107035900Y-87756757D01*
X107591661Y-87757242D01*
X108105303Y-87545010D01*
X108498629Y-87152370D01*
X108584949Y-86944488D01*
X108669990Y-87150303D01*
X109062630Y-87543629D01*
X109575900Y-87756757D01*
X110131661Y-87757242D01*
X110645303Y-87545010D01*
X111038629Y-87152370D01*
X111124949Y-86944488D01*
X111209990Y-87150303D01*
X111602630Y-87543629D01*
X112115900Y-87756757D01*
X112671661Y-87757242D01*
X113185303Y-87545010D01*
X113578629Y-87152370D01*
X113664949Y-86944488D01*
X113749990Y-87150303D01*
X114142630Y-87543629D01*
X114655900Y-87756757D01*
X115211661Y-87757242D01*
X115725303Y-87545010D01*
X116118629Y-87152370D01*
X116204949Y-86944488D01*
X116289990Y-87150303D01*
X116682630Y-87543629D01*
X117195900Y-87756757D01*
X117751661Y-87757242D01*
X118265303Y-87545010D01*
X118658629Y-87152370D01*
X118744949Y-86944488D01*
X118829990Y-87150303D01*
X119222630Y-87543629D01*
X119735900Y-87756757D01*
X120291661Y-87757242D01*
X120805303Y-87545010D01*
X121198629Y-87152370D01*
X121284949Y-86944488D01*
X121369990Y-87150303D01*
X121762630Y-87543629D01*
X122275900Y-87756757D01*
X122831661Y-87757242D01*
X123345303Y-87545010D01*
X123738629Y-87152370D01*
X123951757Y-86639100D01*
X123952242Y-86083339D01*
X123740010Y-85569697D01*
X123347370Y-85176371D01*
X122834100Y-84963243D01*
X122278339Y-84962758D01*
X121764697Y-85174990D01*
X121371371Y-85567630D01*
X121285051Y-85775512D01*
X121200010Y-85569697D01*
X120807370Y-85176371D01*
X120294100Y-84963243D01*
X119738339Y-84962758D01*
X119224697Y-85174990D01*
X118831371Y-85567630D01*
X118745051Y-85775512D01*
X118660010Y-85569697D01*
X118267370Y-85176371D01*
X117754100Y-84963243D01*
X117198339Y-84962758D01*
X116684697Y-85174990D01*
X116291371Y-85567630D01*
X116205051Y-85775512D01*
X116120010Y-85569697D01*
X115727370Y-85176371D01*
X115214100Y-84963243D01*
X114658339Y-84962758D01*
X114144697Y-85174990D01*
X113751371Y-85567630D01*
X113665051Y-85775512D01*
X113580010Y-85569697D01*
X113187370Y-85176371D01*
X112674100Y-84963243D01*
X112118339Y-84962758D01*
X111604697Y-85174990D01*
X111211371Y-85567630D01*
X111125051Y-85775512D01*
X111040010Y-85569697D01*
X110647370Y-85176371D01*
X110134100Y-84963243D01*
X109578339Y-84962758D01*
X109064697Y-85174990D01*
X108671371Y-85567630D01*
X108585051Y-85775512D01*
X108500010Y-85569697D01*
X108107370Y-85176371D01*
X107594100Y-84963243D01*
X107038339Y-84962758D01*
X106524697Y-85174990D01*
X106131371Y-85567630D01*
X105918243Y-86080900D01*
X105917758Y-86636661D01*
X102310000Y-86636661D01*
X102310000Y-83488991D01*
X112764735Y-83488991D01*
X112997932Y-84053371D01*
X113429357Y-84485551D01*
X113993330Y-84719733D01*
X114603991Y-84720265D01*
X115168371Y-84487068D01*
X115600551Y-84055643D01*
X115834733Y-83491670D01*
X115835186Y-82972104D01*
X115861144Y-82946146D01*
X116063826Y-82642810D01*
X116134999Y-82285001D01*
X116134999Y-82170164D01*
X116245000Y-82192440D01*
X118045000Y-82192440D01*
X118280317Y-82148162D01*
X118496441Y-82009090D01*
X118641431Y-81796890D01*
X118692440Y-81545000D01*
X118692440Y-79745000D01*
X118648162Y-79509683D01*
X118509090Y-79293559D01*
X118296890Y-79148569D01*
X118245854Y-79138234D01*
X118382966Y-79012576D01*
X118636046Y-78469742D01*
X118515997Y-78232000D01*
X117272000Y-78232000D01*
X117272000Y-78252000D01*
X117018000Y-78252000D01*
X117018000Y-78232000D01*
X116998000Y-78232000D01*
X116998000Y-77978000D01*
X117018000Y-77978000D01*
X117018000Y-77958000D01*
X117272000Y-77958000D01*
X117272000Y-77978000D01*
X118515997Y-77978000D01*
X118636046Y-77740258D01*
X118382966Y-77197424D01*
X117992418Y-76839501D01*
X118230409Y-76680481D01*
X118563155Y-76182491D01*
X118680000Y-75595072D01*
X118680000Y-75534928D01*
X118563155Y-74947509D01*
X118230409Y-74449519D01*
X117732419Y-74116773D01*
X117145000Y-73999928D01*
X116557581Y-74116773D01*
X116059591Y-74449519D01*
X115726845Y-74947509D01*
X115610000Y-75534928D01*
X115610000Y-75595072D01*
X115640302Y-75747408D01*
X114538854Y-76848856D01*
X114336172Y-77152192D01*
X114264999Y-77510001D01*
X114264999Y-81649969D01*
X113996009Y-81649735D01*
X113431629Y-81882932D01*
X112999449Y-82314357D01*
X112765267Y-82878330D01*
X112764735Y-83488991D01*
X102310000Y-83488991D01*
X102310000Y-78061214D01*
X103810000Y-78061214D01*
X103810000Y-78148786D01*
X103980129Y-79004083D01*
X104464616Y-79729170D01*
X105189703Y-80213657D01*
X106045000Y-80383786D01*
X106900297Y-80213657D01*
X107625384Y-79729170D01*
X108109871Y-79004083D01*
X108280000Y-78148786D01*
X108280000Y-78061214D01*
X108109871Y-77205917D01*
X107625384Y-76480830D01*
X106900297Y-75996343D01*
X106045000Y-75826214D01*
X105189703Y-75996343D01*
X104464616Y-76480830D01*
X103980129Y-77205917D01*
X103810000Y-78061214D01*
X102310000Y-78061214D01*
X102310000Y-66445000D01*
X102627560Y-66445000D01*
X102627560Y-69445000D01*
X102671838Y-69680317D01*
X102810910Y-69896441D01*
X103023110Y-70041431D01*
X103275000Y-70092440D01*
X106275000Y-70092440D01*
X106510317Y-70048162D01*
X106726441Y-69909090D01*
X106871431Y-69696890D01*
X106922440Y-69445000D01*
X106922440Y-68367815D01*
X107719630Y-68367815D01*
X108043980Y-69152800D01*
X108644041Y-69753909D01*
X109428459Y-70079628D01*
X110277815Y-70080370D01*
X111062800Y-69756020D01*
X111663909Y-69155959D01*
X111989628Y-68371541D01*
X111990370Y-67522185D01*
X111666020Y-66737200D01*
X111374330Y-66445000D01*
X112787560Y-66445000D01*
X112787560Y-69445000D01*
X112831838Y-69680317D01*
X112970910Y-69896441D01*
X113183110Y-70041431D01*
X113435000Y-70092440D01*
X116435000Y-70092440D01*
X116670317Y-70048162D01*
X116886441Y-69909090D01*
X117031431Y-69696890D01*
X117082440Y-69445000D01*
X117082440Y-69314730D01*
X121823856Y-74056146D01*
X122127192Y-74258828D01*
X122485001Y-74330001D01*
X124194969Y-74330001D01*
X124194735Y-74598991D01*
X124427932Y-75163371D01*
X124859357Y-75595551D01*
X125423330Y-75829733D01*
X126033991Y-75830265D01*
X126598371Y-75597068D01*
X127030551Y-75165643D01*
X127264733Y-74601670D01*
X127265265Y-73991009D01*
X127032068Y-73426629D01*
X126600643Y-72994449D01*
X126036670Y-72760267D01*
X125517104Y-72759814D01*
X125491146Y-72733856D01*
X125187810Y-72531174D01*
X124830001Y-72460001D01*
X122872291Y-72460001D01*
X120482791Y-70070501D01*
X121189582Y-69777739D01*
X121349365Y-69458970D01*
X120015000Y-68124605D01*
X120000858Y-68138748D01*
X119821253Y-67959143D01*
X119835395Y-67945000D01*
X120194605Y-67945000D01*
X121528970Y-69279365D01*
X121847739Y-69119582D01*
X122157723Y-68328813D01*
X122141497Y-67479613D01*
X121847739Y-66770418D01*
X121528970Y-66610635D01*
X120194605Y-67945000D01*
X119835395Y-67945000D01*
X118501030Y-66610635D01*
X118182261Y-66770418D01*
X117900776Y-67488486D01*
X117696145Y-67283855D01*
X117392809Y-67081173D01*
X117082440Y-67019436D01*
X117082440Y-66445000D01*
X117079812Y-66431030D01*
X118680635Y-66431030D01*
X120015000Y-67765395D01*
X121335395Y-66445000D01*
X122947560Y-66445000D01*
X122947560Y-69445000D01*
X122991838Y-69680317D01*
X123130910Y-69896441D01*
X123343110Y-70041431D01*
X123595000Y-70092440D01*
X126595000Y-70092440D01*
X126830317Y-70048162D01*
X127046441Y-69909090D01*
X127191431Y-69696890D01*
X127242440Y-69445000D01*
X127242440Y-68367815D01*
X128039630Y-68367815D01*
X128363980Y-69152800D01*
X128964041Y-69753909D01*
X129748459Y-70079628D01*
X130597815Y-70080370D01*
X131382800Y-69756020D01*
X131983909Y-69155959D01*
X132309628Y-68371541D01*
X132310370Y-67522185D01*
X131986020Y-66737200D01*
X131694330Y-66445000D01*
X133107560Y-66445000D01*
X133107560Y-69445000D01*
X133151838Y-69680317D01*
X133290910Y-69896441D01*
X133503110Y-70041431D01*
X133755000Y-70092440D01*
X136755000Y-70092440D01*
X136945843Y-70056530D01*
X136895267Y-70178330D01*
X136894735Y-70788991D01*
X137127932Y-71353371D01*
X137495000Y-71721081D01*
X137495000Y-74964445D01*
X137129449Y-75329357D01*
X136895267Y-75893330D01*
X136894735Y-76503991D01*
X137127932Y-77068371D01*
X137559357Y-77500551D01*
X138123330Y-77734733D01*
X138733991Y-77735265D01*
X139298371Y-77502068D01*
X139730551Y-77070643D01*
X139964733Y-76506670D01*
X139965265Y-75896009D01*
X139732068Y-75331629D01*
X139365000Y-74963919D01*
X139365000Y-71720555D01*
X139730551Y-71355643D01*
X139964733Y-70791670D01*
X139965265Y-70181009D01*
X139921991Y-70076278D01*
X139951187Y-70087723D01*
X140800387Y-70071497D01*
X141509582Y-69777739D01*
X141669365Y-69458970D01*
X140335000Y-68124605D01*
X140320858Y-68138748D01*
X140141253Y-67959143D01*
X140155395Y-67945000D01*
X140514605Y-67945000D01*
X141848970Y-69279365D01*
X142167739Y-69119582D01*
X142477723Y-68328813D01*
X142475850Y-68230750D01*
X143280000Y-68230750D01*
X143280000Y-69571310D01*
X143376673Y-69804699D01*
X143555302Y-69983327D01*
X143788691Y-70080000D01*
X145129250Y-70080000D01*
X145288000Y-69921250D01*
X145288000Y-68072000D01*
X145542000Y-68072000D01*
X145542000Y-69921250D01*
X145700750Y-70080000D01*
X146461097Y-70080000D01*
X146420267Y-70178330D01*
X146419735Y-70788991D01*
X146652932Y-71353371D01*
X147020000Y-71721081D01*
X147020000Y-74964445D01*
X146654449Y-75329357D01*
X146420267Y-75893330D01*
X146419735Y-76503991D01*
X146652932Y-77068371D01*
X147084357Y-77500551D01*
X147648330Y-77734733D01*
X148258991Y-77735265D01*
X148823371Y-77502068D01*
X149255551Y-77070643D01*
X149489733Y-76506670D01*
X149490265Y-75896009D01*
X149257068Y-75331629D01*
X148890000Y-74963919D01*
X148890000Y-71720555D01*
X149255551Y-71355643D01*
X149489733Y-70791670D01*
X149490265Y-70181009D01*
X149319952Y-69768821D01*
X150068459Y-70079628D01*
X150905948Y-70080360D01*
X150865267Y-70178330D01*
X150864814Y-70697896D01*
X150468855Y-71093855D01*
X150266173Y-71397191D01*
X150195000Y-71755000D01*
X150195000Y-74964445D01*
X149829449Y-75329357D01*
X149595267Y-75893330D01*
X149594735Y-76503991D01*
X149827932Y-77068371D01*
X150259357Y-77500551D01*
X150823330Y-77734733D01*
X151433991Y-77735265D01*
X151998371Y-77502068D01*
X152430551Y-77070643D01*
X152664733Y-76506670D01*
X152665265Y-75896009D01*
X152432068Y-75331629D01*
X152065000Y-74963919D01*
X152065000Y-72142290D01*
X152187475Y-72019815D01*
X152703991Y-72020265D01*
X153268371Y-71787068D01*
X153700551Y-71355643D01*
X153934733Y-70791670D01*
X153935265Y-70181009D01*
X153882139Y-70052433D01*
X153948691Y-70080000D01*
X155289250Y-70080000D01*
X155448000Y-69921250D01*
X155448000Y-68072000D01*
X155702000Y-68072000D01*
X155702000Y-69921250D01*
X155860750Y-70080000D01*
X157201309Y-70080000D01*
X157434698Y-69983327D01*
X157613327Y-69804699D01*
X157710000Y-69571310D01*
X157710000Y-68367815D01*
X158519630Y-68367815D01*
X158843980Y-69152800D01*
X159444041Y-69753909D01*
X160228459Y-70079628D01*
X161077815Y-70080370D01*
X161862800Y-69756020D01*
X162463909Y-69155959D01*
X162789628Y-68371541D01*
X162790370Y-67522185D01*
X162466020Y-66737200D01*
X162174330Y-66445000D01*
X163587560Y-66445000D01*
X163587560Y-69445000D01*
X163631838Y-69680317D01*
X163770910Y-69896441D01*
X163983110Y-70041431D01*
X164235000Y-70092440D01*
X167235000Y-70092440D01*
X167470317Y-70048162D01*
X167686441Y-69909090D01*
X167831431Y-69696890D01*
X167879611Y-69458970D01*
X169480635Y-69458970D01*
X169640418Y-69777739D01*
X170431187Y-70087723D01*
X171280387Y-70071497D01*
X171989582Y-69777739D01*
X172149365Y-69458970D01*
X170815000Y-68124605D01*
X169480635Y-69458970D01*
X167879611Y-69458970D01*
X167882440Y-69445000D01*
X167882440Y-67561187D01*
X168672277Y-67561187D01*
X168688503Y-68410387D01*
X168982261Y-69119582D01*
X169301030Y-69279365D01*
X170635395Y-67945000D01*
X170994605Y-67945000D01*
X172328970Y-69279365D01*
X172647739Y-69119582D01*
X172957723Y-68328813D01*
X172941497Y-67479613D01*
X172647739Y-66770418D01*
X172328970Y-66610635D01*
X170994605Y-67945000D01*
X170635395Y-67945000D01*
X169301030Y-66610635D01*
X168982261Y-66770418D01*
X168672277Y-67561187D01*
X167882440Y-67561187D01*
X167882440Y-66445000D01*
X167879812Y-66431030D01*
X169480635Y-66431030D01*
X170815000Y-67765395D01*
X172149365Y-66431030D01*
X171989582Y-66112261D01*
X171198813Y-65802277D01*
X170349613Y-65818503D01*
X169640418Y-66112261D01*
X169480635Y-66431030D01*
X167879812Y-66431030D01*
X167838162Y-66209683D01*
X167699090Y-65993559D01*
X167486890Y-65848569D01*
X167235000Y-65797560D01*
X164235000Y-65797560D01*
X163999683Y-65841838D01*
X163783559Y-65980910D01*
X163638569Y-66193110D01*
X163587560Y-66445000D01*
X162174330Y-66445000D01*
X161865959Y-66136091D01*
X161081541Y-65810372D01*
X160232185Y-65809630D01*
X159447200Y-66133980D01*
X158846091Y-66734041D01*
X158520372Y-67518459D01*
X158519630Y-68367815D01*
X157710000Y-68367815D01*
X157710000Y-68230750D01*
X157551250Y-68072000D01*
X155702000Y-68072000D01*
X155448000Y-68072000D01*
X153598750Y-68072000D01*
X153440000Y-68230750D01*
X153440000Y-69354102D01*
X153270643Y-69184449D01*
X152706670Y-68950267D01*
X152389435Y-68949991D01*
X152629628Y-68371541D01*
X152630370Y-67522185D01*
X152306020Y-66737200D01*
X151888240Y-66318690D01*
X153440000Y-66318690D01*
X153440000Y-67659250D01*
X153598750Y-67818000D01*
X155448000Y-67818000D01*
X155448000Y-65968750D01*
X155702000Y-65968750D01*
X155702000Y-67818000D01*
X157551250Y-67818000D01*
X157710000Y-67659250D01*
X157710000Y-66318690D01*
X157613327Y-66085301D01*
X157434698Y-65906673D01*
X157201309Y-65810000D01*
X155860750Y-65810000D01*
X155702000Y-65968750D01*
X155448000Y-65968750D01*
X155289250Y-65810000D01*
X153948691Y-65810000D01*
X153715302Y-65906673D01*
X153536673Y-66085301D01*
X153440000Y-66318690D01*
X151888240Y-66318690D01*
X151705959Y-66136091D01*
X150921541Y-65810372D01*
X150072185Y-65809630D01*
X149287200Y-66133980D01*
X148686091Y-66734041D01*
X148360372Y-67518459D01*
X148359630Y-68367815D01*
X148670426Y-69119997D01*
X148261670Y-68950267D01*
X147651009Y-68949735D01*
X147550000Y-68991471D01*
X147550000Y-68230750D01*
X147391250Y-68072000D01*
X145542000Y-68072000D01*
X145288000Y-68072000D01*
X143438750Y-68072000D01*
X143280000Y-68230750D01*
X142475850Y-68230750D01*
X142461497Y-67479613D01*
X142167739Y-66770418D01*
X141848970Y-66610635D01*
X140514605Y-67945000D01*
X140155395Y-67945000D01*
X138821030Y-66610635D01*
X138502261Y-66770418D01*
X138192277Y-67561187D01*
X138208503Y-68410387D01*
X138432019Y-68950002D01*
X138126009Y-68949735D01*
X137561629Y-69182932D01*
X137402440Y-69341843D01*
X137402440Y-66445000D01*
X137399812Y-66431030D01*
X139000635Y-66431030D01*
X140335000Y-67765395D01*
X141669365Y-66431030D01*
X141613055Y-66318690D01*
X143280000Y-66318690D01*
X143280000Y-67659250D01*
X143438750Y-67818000D01*
X145288000Y-67818000D01*
X145288000Y-65968750D01*
X145542000Y-65968750D01*
X145542000Y-67818000D01*
X147391250Y-67818000D01*
X147550000Y-67659250D01*
X147550000Y-66318690D01*
X147453327Y-66085301D01*
X147274698Y-65906673D01*
X147041309Y-65810000D01*
X145700750Y-65810000D01*
X145542000Y-65968750D01*
X145288000Y-65968750D01*
X145129250Y-65810000D01*
X143788691Y-65810000D01*
X143555302Y-65906673D01*
X143376673Y-66085301D01*
X143280000Y-66318690D01*
X141613055Y-66318690D01*
X141509582Y-66112261D01*
X140718813Y-65802277D01*
X139869613Y-65818503D01*
X139160418Y-66112261D01*
X139000635Y-66431030D01*
X137399812Y-66431030D01*
X137358162Y-66209683D01*
X137219090Y-65993559D01*
X137006890Y-65848569D01*
X136755000Y-65797560D01*
X133755000Y-65797560D01*
X133519683Y-65841838D01*
X133303559Y-65980910D01*
X133158569Y-66193110D01*
X133107560Y-66445000D01*
X131694330Y-66445000D01*
X131385959Y-66136091D01*
X130601541Y-65810372D01*
X129752185Y-65809630D01*
X128967200Y-66133980D01*
X128366091Y-66734041D01*
X128040372Y-67518459D01*
X128039630Y-68367815D01*
X127242440Y-68367815D01*
X127242440Y-66445000D01*
X127198162Y-66209683D01*
X127059090Y-65993559D01*
X126846890Y-65848569D01*
X126595000Y-65797560D01*
X123595000Y-65797560D01*
X123359683Y-65841838D01*
X123143559Y-65980910D01*
X122998569Y-66193110D01*
X122947560Y-66445000D01*
X121335395Y-66445000D01*
X121349365Y-66431030D01*
X121189582Y-66112261D01*
X120398813Y-65802277D01*
X119549613Y-65818503D01*
X118840418Y-66112261D01*
X118680635Y-66431030D01*
X117079812Y-66431030D01*
X117038162Y-66209683D01*
X116899090Y-65993559D01*
X116686890Y-65848569D01*
X116435000Y-65797560D01*
X113435000Y-65797560D01*
X113199683Y-65841838D01*
X112983559Y-65980910D01*
X112838569Y-66193110D01*
X112787560Y-66445000D01*
X111374330Y-66445000D01*
X111065959Y-66136091D01*
X110281541Y-65810372D01*
X109432185Y-65809630D01*
X108647200Y-66133980D01*
X108046091Y-66734041D01*
X107720372Y-67518459D01*
X107719630Y-68367815D01*
X106922440Y-68367815D01*
X106922440Y-66445000D01*
X106878162Y-66209683D01*
X106739090Y-65993559D01*
X106526890Y-65848569D01*
X106275000Y-65797560D01*
X103275000Y-65797560D01*
X103039683Y-65841838D01*
X102823559Y-65980910D01*
X102678569Y-66193110D01*
X102627560Y-66445000D01*
X102310000Y-66445000D01*
X102310000Y-64210000D01*
X173280000Y-64210000D01*
X173280000Y-104065000D01*
M02*
