G04 #@! TF.FileFunction,Soldermask,Top*
%FSLAX46Y46*%
G04 Gerber Fmt 4.6, Leading zero omitted, Abs format (unit mm)*
G04 Created by KiCad (PCBNEW 4.0.7) date 05/05/18 10:53:01*
%MOMM*%
%LPD*%
G01*
G04 APERTURE LIST*
%ADD10C,0.100000*%
%ADD11R,1.900000X1.650000*%
%ADD12C,1.924000*%
%ADD13O,3.600000X3.600000*%
%ADD14R,2.200000X2.200000*%
%ADD15O,2.200000X2.200000*%
%ADD16R,1.900000X1.700000*%
%ADD17R,1.700000X1.900000*%
%ADD18R,3.400000X3.400000*%
%ADD19C,3.400000*%
G04 APERTURE END LIST*
D10*
D11*
X120650000Y-81280000D03*
X123150000Y-81280000D03*
X120690000Y-75565000D03*
X123190000Y-75565000D03*
D12*
X140335000Y-94615000D03*
X156845000Y-94615000D03*
X140335000Y-102235000D03*
X160655000Y-102235000D03*
D13*
X106375000Y-98425000D03*
D14*
X117475000Y-100965000D03*
D15*
X117475000Y-98425000D03*
X117475000Y-95885000D03*
D16*
X141525000Y-76835000D03*
X144225000Y-76835000D03*
D17*
X140970000Y-87710000D03*
X140970000Y-85010000D03*
X146050000Y-87710000D03*
X146050000Y-85010000D03*
X136525000Y-85010000D03*
X136525000Y-87710000D03*
D16*
X150970000Y-85725000D03*
X153670000Y-85725000D03*
X141605000Y-80010000D03*
X144305000Y-80010000D03*
D17*
X132715000Y-87710000D03*
X132715000Y-85010000D03*
D12*
X122555000Y-90170000D03*
X120015000Y-90170000D03*
X117475000Y-90170000D03*
X114935000Y-90170000D03*
X112395000Y-90170000D03*
X109855000Y-90170000D03*
X107315000Y-90170000D03*
X122555000Y-86360000D03*
X120015000Y-86360000D03*
X117475000Y-86360000D03*
X114935000Y-86360000D03*
X112395000Y-86360000D03*
X109855000Y-86360000D03*
X107315000Y-86360000D03*
D13*
X106045000Y-78105000D03*
D14*
X117145000Y-80645000D03*
D15*
X117145000Y-78105000D03*
X117145000Y-75565000D03*
D18*
X135255000Y-67945000D03*
D19*
X140335000Y-67945000D03*
D18*
X114935000Y-67945000D03*
D19*
X120015000Y-67945000D03*
D18*
X165735000Y-67945000D03*
D19*
X170815000Y-67945000D03*
D18*
X125095000Y-67945000D03*
D19*
X130175000Y-67945000D03*
D18*
X104775000Y-67945000D03*
D19*
X109855000Y-67945000D03*
D18*
X145415000Y-67945000D03*
D19*
X150495000Y-67945000D03*
D18*
X155575000Y-67945000D03*
D19*
X160655000Y-67945000D03*
M02*
