G04 #@! TF.FileFunction,Legend,Top*
%FSLAX46Y46*%
G04 Gerber Fmt 4.6, Leading zero omitted, Abs format (unit mm)*
G04 Created by KiCad (PCBNEW 4.0.7) date 05/05/18 10:53:01*
%MOMM*%
%LPD*%
G01*
G04 APERTURE LIST*
%ADD10C,0.100000*%
%ADD11C,0.120000*%
%ADD12C,0.150000*%
G04 APERTURE END LIST*
D10*
D11*
X122400000Y-80430000D02*
X121400000Y-80430000D01*
X121400000Y-82130000D02*
X122400000Y-82130000D01*
X122440000Y-74715000D02*
X121440000Y-74715000D01*
X121440000Y-76415000D02*
X122440000Y-76415000D01*
X113595000Y-102545000D02*
X113595000Y-94305000D01*
X102355000Y-102545000D02*
X102355000Y-94305000D01*
X102355000Y-102545000D02*
X113595000Y-102545000D01*
X102355000Y-94305000D02*
X113595000Y-94305000D01*
X113595000Y-100965000D02*
X116425000Y-100965000D01*
X113595000Y-98425000D02*
X116409000Y-98425000D01*
X113595000Y-95885000D02*
X116409000Y-95885000D01*
X143475000Y-77715000D02*
X142275000Y-77715000D01*
X142275000Y-75955000D02*
X143475000Y-75955000D01*
X141850000Y-85760000D02*
X141850000Y-86960000D01*
X140090000Y-86960000D02*
X140090000Y-85760000D01*
X146930000Y-85760000D02*
X146930000Y-86960000D01*
X145170000Y-86960000D02*
X145170000Y-85760000D01*
X135645000Y-86960000D02*
X135645000Y-85760000D01*
X137405000Y-85760000D02*
X137405000Y-86960000D01*
X152920000Y-86605000D02*
X151720000Y-86605000D01*
X151720000Y-84845000D02*
X152920000Y-84845000D01*
X143555000Y-80890000D02*
X142355000Y-80890000D01*
X142355000Y-79130000D02*
X143555000Y-79130000D01*
X133595000Y-85760000D02*
X133595000Y-86960000D01*
X131835000Y-86960000D02*
X131835000Y-85760000D01*
X113265000Y-82225000D02*
X113265000Y-73985000D01*
X102025000Y-82225000D02*
X102025000Y-73985000D01*
X102025000Y-82225000D02*
X113265000Y-82225000D01*
X102025000Y-73985000D02*
X113265000Y-73985000D01*
X113265000Y-80645000D02*
X116095000Y-80645000D01*
X113265000Y-78105000D02*
X116079000Y-78105000D01*
X113265000Y-75565000D02*
X116079000Y-75565000D01*
X142875000Y-70485000D02*
X132715000Y-70485000D01*
X142875000Y-71755000D02*
X142875000Y-64135000D01*
X142875000Y-64135000D02*
X132715000Y-64135000D01*
X132715000Y-64135000D02*
X132715000Y-71755000D01*
X132715000Y-71755000D02*
X142875000Y-71755000D01*
X122555000Y-70485000D02*
X112395000Y-70485000D01*
X122555000Y-71755000D02*
X122555000Y-64135000D01*
X122555000Y-64135000D02*
X112395000Y-64135000D01*
X112395000Y-64135000D02*
X112395000Y-71755000D01*
X112395000Y-71755000D02*
X122555000Y-71755000D01*
X173355000Y-70485000D02*
X163195000Y-70485000D01*
X173355000Y-71755000D02*
X173355000Y-64135000D01*
X173355000Y-64135000D02*
X163195000Y-64135000D01*
X163195000Y-64135000D02*
X163195000Y-71755000D01*
X163195000Y-71755000D02*
X173355000Y-71755000D01*
X132715000Y-70485000D02*
X122555000Y-70485000D01*
X132715000Y-71755000D02*
X132715000Y-64135000D01*
X132715000Y-64135000D02*
X122555000Y-64135000D01*
X122555000Y-64135000D02*
X122555000Y-71755000D01*
X122555000Y-71755000D02*
X132715000Y-71755000D01*
X112395000Y-70485000D02*
X102235000Y-70485000D01*
X112395000Y-71755000D02*
X112395000Y-64135000D01*
X112395000Y-64135000D02*
X102235000Y-64135000D01*
X102235000Y-64135000D02*
X102235000Y-71755000D01*
X102235000Y-71755000D02*
X112395000Y-71755000D01*
X153035000Y-70485000D02*
X142875000Y-70485000D01*
X153035000Y-71755000D02*
X153035000Y-64135000D01*
X153035000Y-64135000D02*
X142875000Y-64135000D01*
X142875000Y-64135000D02*
X142875000Y-71755000D01*
X142875000Y-71755000D02*
X153035000Y-71755000D01*
X163195000Y-70485000D02*
X153035000Y-70485000D01*
X163195000Y-71755000D02*
X163195000Y-64135000D01*
X163195000Y-64135000D02*
X153035000Y-64135000D01*
X153035000Y-64135000D02*
X153035000Y-71755000D01*
X153035000Y-71755000D02*
X163195000Y-71755000D01*
D12*
X121733334Y-79887143D02*
X121685715Y-79934762D01*
X121542858Y-79982381D01*
X121447620Y-79982381D01*
X121304762Y-79934762D01*
X121209524Y-79839524D01*
X121161905Y-79744286D01*
X121114286Y-79553810D01*
X121114286Y-79410952D01*
X121161905Y-79220476D01*
X121209524Y-79125238D01*
X121304762Y-79030000D01*
X121447620Y-78982381D01*
X121542858Y-78982381D01*
X121685715Y-79030000D01*
X121733334Y-79077619D01*
X122685715Y-79982381D02*
X122114286Y-79982381D01*
X122400000Y-79982381D02*
X122400000Y-78982381D01*
X122304762Y-79125238D01*
X122209524Y-79220476D01*
X122114286Y-79268095D01*
X121773334Y-74172143D02*
X121725715Y-74219762D01*
X121582858Y-74267381D01*
X121487620Y-74267381D01*
X121344762Y-74219762D01*
X121249524Y-74124524D01*
X121201905Y-74029286D01*
X121154286Y-73838810D01*
X121154286Y-73695952D01*
X121201905Y-73505476D01*
X121249524Y-73410238D01*
X121344762Y-73315000D01*
X121487620Y-73267381D01*
X121582858Y-73267381D01*
X121725715Y-73315000D01*
X121773334Y-73362619D01*
X122154286Y-73362619D02*
X122201905Y-73315000D01*
X122297143Y-73267381D01*
X122535239Y-73267381D01*
X122630477Y-73315000D01*
X122678096Y-73362619D01*
X122725715Y-73457857D01*
X122725715Y-73553095D01*
X122678096Y-73695952D01*
X122106667Y-74267381D01*
X122725715Y-74267381D01*
X136421905Y-96972381D02*
X136421905Y-95972381D01*
X136993334Y-96972381D02*
X136564762Y-96400952D01*
X136993334Y-95972381D02*
X136421905Y-96543810D01*
X137945715Y-96972381D02*
X137374286Y-96972381D01*
X137660000Y-96972381D02*
X137660000Y-95972381D01*
X137564762Y-96115238D01*
X137469524Y-96210476D01*
X137374286Y-96258095D01*
X104044762Y-93892619D02*
X103949524Y-93845000D01*
X103854286Y-93749762D01*
X103711429Y-93606905D01*
X103616190Y-93559286D01*
X103520952Y-93559286D01*
X103568571Y-93797381D02*
X103473333Y-93749762D01*
X103378095Y-93654524D01*
X103330476Y-93464048D01*
X103330476Y-93130714D01*
X103378095Y-92940238D01*
X103473333Y-92845000D01*
X103568571Y-92797381D01*
X103759048Y-92797381D01*
X103854286Y-92845000D01*
X103949524Y-92940238D01*
X103997143Y-93130714D01*
X103997143Y-93464048D01*
X103949524Y-93654524D01*
X103854286Y-93749762D01*
X103759048Y-93797381D01*
X103568571Y-93797381D01*
X104949524Y-93797381D02*
X104378095Y-93797381D01*
X104663809Y-93797381D02*
X104663809Y-92797381D01*
X104568571Y-92940238D01*
X104473333Y-93035476D01*
X104378095Y-93083095D01*
X142708334Y-75587381D02*
X142375000Y-75111190D01*
X142136905Y-75587381D02*
X142136905Y-74587381D01*
X142517858Y-74587381D01*
X142613096Y-74635000D01*
X142660715Y-74682619D01*
X142708334Y-74777857D01*
X142708334Y-74920714D01*
X142660715Y-75015952D01*
X142613096Y-75063571D01*
X142517858Y-75111190D01*
X142136905Y-75111190D01*
X143660715Y-75587381D02*
X143089286Y-75587381D01*
X143375000Y-75587381D02*
X143375000Y-74587381D01*
X143279762Y-74730238D01*
X143184524Y-74825476D01*
X143089286Y-74873095D01*
X139722381Y-86526666D02*
X139246190Y-86860000D01*
X139722381Y-87098095D02*
X138722381Y-87098095D01*
X138722381Y-86717142D01*
X138770000Y-86621904D01*
X138817619Y-86574285D01*
X138912857Y-86526666D01*
X139055714Y-86526666D01*
X139150952Y-86574285D01*
X139198571Y-86621904D01*
X139246190Y-86717142D01*
X139246190Y-87098095D01*
X138817619Y-86145714D02*
X138770000Y-86098095D01*
X138722381Y-86002857D01*
X138722381Y-85764761D01*
X138770000Y-85669523D01*
X138817619Y-85621904D01*
X138912857Y-85574285D01*
X139008095Y-85574285D01*
X139150952Y-85621904D01*
X139722381Y-86193333D01*
X139722381Y-85574285D01*
X144802381Y-86526666D02*
X144326190Y-86860000D01*
X144802381Y-87098095D02*
X143802381Y-87098095D01*
X143802381Y-86717142D01*
X143850000Y-86621904D01*
X143897619Y-86574285D01*
X143992857Y-86526666D01*
X144135714Y-86526666D01*
X144230952Y-86574285D01*
X144278571Y-86621904D01*
X144326190Y-86717142D01*
X144326190Y-87098095D01*
X143802381Y-86193333D02*
X143802381Y-85574285D01*
X144183333Y-85907619D01*
X144183333Y-85764761D01*
X144230952Y-85669523D01*
X144278571Y-85621904D01*
X144373810Y-85574285D01*
X144611905Y-85574285D01*
X144707143Y-85621904D01*
X144754762Y-85669523D01*
X144802381Y-85764761D01*
X144802381Y-86050476D01*
X144754762Y-86145714D01*
X144707143Y-86193333D01*
X135072381Y-86526666D02*
X134596190Y-86860000D01*
X135072381Y-87098095D02*
X134072381Y-87098095D01*
X134072381Y-86717142D01*
X134120000Y-86621904D01*
X134167619Y-86574285D01*
X134262857Y-86526666D01*
X134405714Y-86526666D01*
X134500952Y-86574285D01*
X134548571Y-86621904D01*
X134596190Y-86717142D01*
X134596190Y-87098095D01*
X134405714Y-85669523D02*
X135072381Y-85669523D01*
X134024762Y-85907619D02*
X134739048Y-86145714D01*
X134739048Y-85526666D01*
X152153334Y-84477381D02*
X151820000Y-84001190D01*
X151581905Y-84477381D02*
X151581905Y-83477381D01*
X151962858Y-83477381D01*
X152058096Y-83525000D01*
X152105715Y-83572619D01*
X152153334Y-83667857D01*
X152153334Y-83810714D01*
X152105715Y-83905952D01*
X152058096Y-83953571D01*
X151962858Y-84001190D01*
X151581905Y-84001190D01*
X153058096Y-83477381D02*
X152581905Y-83477381D01*
X152534286Y-83953571D01*
X152581905Y-83905952D01*
X152677143Y-83858333D01*
X152915239Y-83858333D01*
X153010477Y-83905952D01*
X153058096Y-83953571D01*
X153105715Y-84048810D01*
X153105715Y-84286905D01*
X153058096Y-84382143D01*
X153010477Y-84429762D01*
X152915239Y-84477381D01*
X152677143Y-84477381D01*
X152581905Y-84429762D01*
X152534286Y-84382143D01*
X142788334Y-78762381D02*
X142455000Y-78286190D01*
X142216905Y-78762381D02*
X142216905Y-77762381D01*
X142597858Y-77762381D01*
X142693096Y-77810000D01*
X142740715Y-77857619D01*
X142788334Y-77952857D01*
X142788334Y-78095714D01*
X142740715Y-78190952D01*
X142693096Y-78238571D01*
X142597858Y-78286190D01*
X142216905Y-78286190D01*
X143645477Y-77762381D02*
X143455000Y-77762381D01*
X143359762Y-77810000D01*
X143312143Y-77857619D01*
X143216905Y-78000476D01*
X143169286Y-78190952D01*
X143169286Y-78571905D01*
X143216905Y-78667143D01*
X143264524Y-78714762D01*
X143359762Y-78762381D01*
X143550239Y-78762381D01*
X143645477Y-78714762D01*
X143693096Y-78667143D01*
X143740715Y-78571905D01*
X143740715Y-78333810D01*
X143693096Y-78238571D01*
X143645477Y-78190952D01*
X143550239Y-78143333D01*
X143359762Y-78143333D01*
X143264524Y-78190952D01*
X143216905Y-78238571D01*
X143169286Y-78333810D01*
X131467381Y-86526666D02*
X130991190Y-86860000D01*
X131467381Y-87098095D02*
X130467381Y-87098095D01*
X130467381Y-86717142D01*
X130515000Y-86621904D01*
X130562619Y-86574285D01*
X130657857Y-86526666D01*
X130800714Y-86526666D01*
X130895952Y-86574285D01*
X130943571Y-86621904D01*
X130991190Y-86717142D01*
X130991190Y-87098095D01*
X130467381Y-86193333D02*
X130467381Y-85526666D01*
X131467381Y-85955238D01*
X104013095Y-87717381D02*
X104013095Y-88526905D01*
X104060714Y-88622143D01*
X104108333Y-88669762D01*
X104203571Y-88717381D01*
X104394048Y-88717381D01*
X104489286Y-88669762D01*
X104536905Y-88622143D01*
X104584524Y-88526905D01*
X104584524Y-87717381D01*
X105584524Y-88717381D02*
X105013095Y-88717381D01*
X105298809Y-88717381D02*
X105298809Y-87717381D01*
X105203571Y-87860238D01*
X105108333Y-87955476D01*
X105013095Y-88003095D01*
X103378095Y-83272381D02*
X103378095Y-84081905D01*
X103425714Y-84177143D01*
X103473333Y-84224762D01*
X103568571Y-84272381D01*
X103759048Y-84272381D01*
X103854286Y-84224762D01*
X103901905Y-84177143D01*
X103949524Y-84081905D01*
X103949524Y-83272381D01*
X104378095Y-83367619D02*
X104425714Y-83320000D01*
X104520952Y-83272381D01*
X104759048Y-83272381D01*
X104854286Y-83320000D01*
X104901905Y-83367619D01*
X104949524Y-83462857D01*
X104949524Y-83558095D01*
X104901905Y-83700952D01*
X104330476Y-84272381D01*
X104949524Y-84272381D01*
X136985476Y-73477381D02*
X136985476Y-72477381D01*
X137318810Y-73191667D01*
X137652143Y-72477381D01*
X137652143Y-73477381D01*
X138652143Y-73477381D02*
X138080714Y-73477381D01*
X138366428Y-73477381D02*
X138366428Y-72477381D01*
X138271190Y-72620238D01*
X138175952Y-72715476D01*
X138080714Y-72763095D01*
X116030476Y-73477381D02*
X116030476Y-72477381D01*
X116363810Y-73191667D01*
X116697143Y-72477381D01*
X116697143Y-73477381D01*
X117125714Y-72572619D02*
X117173333Y-72525000D01*
X117268571Y-72477381D01*
X117506667Y-72477381D01*
X117601905Y-72525000D01*
X117649524Y-72572619D01*
X117697143Y-72667857D01*
X117697143Y-72763095D01*
X117649524Y-72905952D01*
X117078095Y-73477381D01*
X117697143Y-73477381D01*
X167465476Y-73477381D02*
X167465476Y-72477381D01*
X167798810Y-73191667D01*
X168132143Y-72477381D01*
X168132143Y-73477381D01*
X168513095Y-72477381D02*
X169132143Y-72477381D01*
X168798809Y-72858333D01*
X168941667Y-72858333D01*
X169036905Y-72905952D01*
X169084524Y-72953571D01*
X169132143Y-73048810D01*
X169132143Y-73286905D01*
X169084524Y-73382143D01*
X169036905Y-73429762D01*
X168941667Y-73477381D01*
X168655952Y-73477381D01*
X168560714Y-73429762D01*
X168513095Y-73382143D01*
X125666667Y-73429762D02*
X125809524Y-73477381D01*
X126047620Y-73477381D01*
X126142858Y-73429762D01*
X126190477Y-73382143D01*
X126238096Y-73286905D01*
X126238096Y-73191667D01*
X126190477Y-73096429D01*
X126142858Y-73048810D01*
X126047620Y-73001190D01*
X125857143Y-72953571D01*
X125761905Y-72905952D01*
X125714286Y-72858333D01*
X125666667Y-72763095D01*
X125666667Y-72667857D01*
X125714286Y-72572619D01*
X125761905Y-72525000D01*
X125857143Y-72477381D01*
X126095239Y-72477381D01*
X126238096Y-72525000D01*
X126571429Y-72477381D02*
X126809524Y-73477381D01*
X127000001Y-72763095D01*
X127190477Y-73477381D01*
X127428572Y-72477381D01*
X128333334Y-73477381D02*
X127761905Y-73477381D01*
X128047619Y-73477381D02*
X128047619Y-72477381D01*
X127952381Y-72620238D01*
X127857143Y-72715476D01*
X127761905Y-72763095D01*
X105981667Y-73429762D02*
X106124524Y-73477381D01*
X106362620Y-73477381D01*
X106457858Y-73429762D01*
X106505477Y-73382143D01*
X106553096Y-73286905D01*
X106553096Y-73191667D01*
X106505477Y-73096429D01*
X106457858Y-73048810D01*
X106362620Y-73001190D01*
X106172143Y-72953571D01*
X106076905Y-72905952D01*
X106029286Y-72858333D01*
X105981667Y-72763095D01*
X105981667Y-72667857D01*
X106029286Y-72572619D01*
X106076905Y-72525000D01*
X106172143Y-72477381D01*
X106410239Y-72477381D01*
X106553096Y-72525000D01*
X106886429Y-72477381D02*
X107124524Y-73477381D01*
X107315001Y-72763095D01*
X107505477Y-73477381D01*
X107743572Y-72477381D01*
X108076905Y-72572619D02*
X108124524Y-72525000D01*
X108219762Y-72477381D01*
X108457858Y-72477381D01*
X108553096Y-72525000D01*
X108600715Y-72572619D01*
X108648334Y-72667857D01*
X108648334Y-72763095D01*
X108600715Y-72905952D01*
X108029286Y-73477381D01*
X108648334Y-73477381D01*
X146581905Y-73477381D02*
X146581905Y-72477381D01*
X146820000Y-72477381D01*
X146962858Y-72525000D01*
X147058096Y-72620238D01*
X147105715Y-72715476D01*
X147153334Y-72905952D01*
X147153334Y-73048810D01*
X147105715Y-73239286D01*
X147058096Y-73334524D01*
X146962858Y-73429762D01*
X146820000Y-73477381D01*
X146581905Y-73477381D01*
X148105715Y-73477381D02*
X147534286Y-73477381D01*
X147820000Y-73477381D02*
X147820000Y-72477381D01*
X147724762Y-72620238D01*
X147629524Y-72715476D01*
X147534286Y-72763095D01*
X156741905Y-73477381D02*
X156741905Y-72477381D01*
X156980000Y-72477381D01*
X157122858Y-72525000D01*
X157218096Y-72620238D01*
X157265715Y-72715476D01*
X157313334Y-72905952D01*
X157313334Y-73048810D01*
X157265715Y-73239286D01*
X157218096Y-73334524D01*
X157122858Y-73429762D01*
X156980000Y-73477381D01*
X156741905Y-73477381D01*
X157694286Y-72572619D02*
X157741905Y-72525000D01*
X157837143Y-72477381D01*
X158075239Y-72477381D01*
X158170477Y-72525000D01*
X158218096Y-72572619D01*
X158265715Y-72667857D01*
X158265715Y-72763095D01*
X158218096Y-72905952D01*
X157646667Y-73477381D01*
X158265715Y-73477381D01*
M02*
