M48
;DRILL file {KiCad 4.0.7} date 05/05/18 10:53:09
;FORMAT={2:4/ absolute / inch / suppress leading zeros}
FMAT,2
INCH,TZ
T1C0.016
T2C0.030
T3C0.039
T4C0.060
T5C0.126
%
G90
G05
M72
T1
X46250Y-39750
X47250Y-26750
X48250Y-35500
X55250Y-26750
X57250Y-26750
X61250Y-26750
X67250Y-26750
T2
X42250Y-34000
X42250Y-35500
X43250Y-34000
X43250Y-35500
X44250Y-34000
X44250Y-35500
X45250Y-34000
X45250Y-35500
X46250Y-34000
X46250Y-35500
X47250Y-34000
X47250Y-35500
X48250Y-34000
X48250Y-35500
X55250Y-37250
X55250Y-40250
X61750Y-37250
X63250Y-40250
T3
X45000Y-32750
X45500Y-36500
X46120Y-29750
X46120Y-30750
X46120Y-31750
X46250Y-37750
X46250Y-38750
X46250Y-39750
X47500Y-30750
X49500Y-29250
X49500Y-30750
X49500Y-36750
X50000Y-35048
X54500Y-27750
X54500Y-30000
X54500Y-34000
X58250Y-27750
X58250Y-30000
X59500Y-30000
X60000Y-27750
X60000Y-32500
T4
X41250Y-26750
X43250Y-26750
X45250Y-26750
X47250Y-26750
X49250Y-26750
X51250Y-26750
X53250Y-26750
X55250Y-26750
X57250Y-26750
X59250Y-26750
X61250Y-26750
X63250Y-26750
X65250Y-26750
X67250Y-26750
T5
X41750Y-30750
X41880Y-38750
T0
M30
